<svg width="26" height="26" viewBox="0 0 26 26" xmlns="http://www.w3.org/2000/svg">
  <path fill="currentColor" d="M10 15V17H16V15H20V6C20 5.45 19.55 5 19 5H7C6.45 5 6 5.45 6 6V15H10ZM9.5 8H16.5C16.78 8 17 8.22 17 8.5C17 8.78 16.78 9 16.5 9H9.5C9.22 9 9 8.78 9 8.5C9 8.22 9.22 8 9.5 8ZM9.5 10H16.5C16.78 10 17 10.22 17 10.5C17 10.78 16.78 11 16.5 11H9.5C9.22 11 9 10.78 9 10.5C9 10.22 9.22 10 9.5 10ZM9.5 12H16.5C16.78 12 17 12.22 17 12.5C17 12.78 16.78 13 16.5 13H9.5C9.22 13 9 12.78 9 12.5C9 12.22 9.22 12 9.5 12ZM17 16V17C17 17.55 16.55 18 16 18H10C9.45 18 9 17.55 9 17V16H6V20C6 20.55 6.45 21 7 21H19C19.55 21 20 20.55 20 20V16H17Z" />
</svg>
