<svg width="26" height="26" viewBox="0 0 26 26" xmlns="http://www.w3.org/2000/svg">
  <path d="M5 8.30556H12.65V9.51667V10.7278V13.15H5V8.30556Z" fill="currentColor"/>
  <path d="M14.25 8.30556H22V13.15H14.25V8.30556Z" fill="currentColor"/>
  <path d="M5.47222 14.9167H12.65V21.4806H5.47222V14.9167Z" fill="currentColor"/>
  <path d="M14.25 14.9167H21.5278V21.4806H14.25V14.9167Z" fill="currentColor"/>
  <path fill="currentColor" fill-rule="evenodd" clip-rule="evenodd" d="M12.65 9.61329C11.6587 9.9988 10.086 9.89053 9.25183 9.50157C8.07 8.95047 7.55869 7.54566 8.10979 6.36383C8.66089 5.182 10.0657 4.67068 11.2475 5.22178C12.1631 5.64873 13.3185 6.88756 13.5363 7.97359C13.7541 6.88756 14.9094 5.64873 15.825 5.22178C17.0069 4.67068 18.4117 5.182 18.9628 6.36383C19.5139 7.54566 19.0026 8.95047 17.8207 9.50157C16.966 9.90014 15.2405 10.004 14.25 9.58382V8.30556H12.65V9.61329ZM9.90319 8.96936C10.6123 9.30002 12.2493 9.29259 12.58 8.58349C12.9107 7.87439 11.8097 6.73215 11.1006 6.40149C10.3915 6.07083 9.54862 6.37762 9.21796 7.08671C8.88731 7.79581 9.19409 8.6387 9.90319 8.96936ZM17.1694 8.96936C16.4603 9.30002 14.6507 9.29259 14.32 8.58349C13.9893 7.87439 15.2628 6.73215 15.9719 6.40149C16.681 6.07083 17.5239 6.37762 17.8546 7.08671C18.1852 7.79581 17.8785 8.6387 17.1694 8.96936Z" />
</svg>
