<svg width="26" height="26" viewBox="0 0 26 26" xmlns="http://www.w3.org/2000/svg">
  <path fill="currentColor" d="M9.62362 8.50134H15.9063L20.0757 4.33199C20.7843 3.62341 21.9956 4.12391 21.9956 5.12717V20.8733C21.9956 21.8743 20.7843 22.3771 20.0757 21.6685L15.9063 17.4991H12.9978V19.7486C12.9978 20.3452 12.7608 20.9173 12.3389 21.3392C11.9171 21.761 11.3449 21.998 10.7483 21.998C10.1518 21.998 9.5796 21.761 9.15775 21.3392C8.73589 20.9173 8.4989 20.3452 8.4989 19.7486V17.4991C7.30572 17.4991 6.1614 17.0251 5.3177 16.1814C4.47399 15.3377 4 14.1934 4 13.0002C4 11.8071 4.47399 10.6627 5.3177 9.81904C6.1614 8.97533 7.30572 8.50134 8.4989 8.50134H9.62362V8.50134Z" />
</svg>
